# xmcd
#
# Track frame offsets: 
#        150
#        26228
#        44893
#        61880
#        103500
#        137860
#        156128
#        180230
#        220778
#        269423
#
# Disc length: 4341 seconds
#
# Revision: 5
# Processed by: cddbd v1.5.2PL0 Copyright (c) Steve Scherf et al.
# Submitted via: ExactAudioCopy v1.0b3
#
DISCID=9010f30a
DTITLE=Bill Perry - Live in N.Y.C.
DYEAR=1999
DGENRE=Blues
TTITLE0=Lost In The Blues
TTITLE1=Dust My Broom
TTITLE2=The Other Night
TTITLE3=All Along The Watchtower
TTITLE4=How Blue Can You Get
TTITLE5=Boogie Blues
TTITLE6=About Me (Why I Got The Blues)
TTITLE7=Johnny B. Goode
TTITLE8=Fade To Blue
TTITLE9=Little Wing
EXTD=
EXTT0=
EXTT1=
EXTT2=
EXTT3=
EXTT4=
EXTT5=
EXTT6=
EXTT7=
EXTT8=
EXTT9=
PLAYORDER=
